<?xml version="1.0" encoding="UTF-8"?>
<svg width="58px" height="60px" viewBox="0 0 58 60" version="1.1" xmlns="http://www.w3.org/2000/svg" xmlns:xlink="http://www.w3.org/1999/xlink">
    <!-- Generator: Sketch 44.1 (41455) - http://www.bohemiancoding.com/sketch -->
    <title>ill_email</title>
    <desc>Created with Sketch.</desc>
    <defs></defs>
    <g id="Page-1" stroke="none" stroke-width="1" fill="none" fill-rule="evenodd">
        <g id="ill_email">
            <polygon id="Shape" fill="#FF5722" fill-rule="nonzero" points="28.72 1.27 0.91 23.7 4.91 25.61 53.34 25.52 56.33 23.91"></polygon>
            <polygon id="Shape" fill="#FDCE07" fill-rule="nonzero" points="28.72 1.27 0.91 23.7 4.91 25.61 53.34 25.52 56.33 23.91"></polygon>
            <polygon id="Shape" fill="#FDCE07" fill-rule="nonzero" opacity="0.5" style="mix-blend-mode: multiply;" points="20.1 7.68 37.75 7.68 39.28 9.82 18.05 9.97"></polygon>
            <path d="M56,58.57 C56.3998073,58.0497211 56.6828903,57.4494488 56.83,56.81 L56.83,23.71 L40,34.6 L56,58.57 Z" id="Shape" fill="#06BBD3" fill-rule="nonzero"></path>
            <path d="M18.4,34.51 L1.21,23.71 L1.21,56.81 C1.21,57.34 2.12,58.11 2.4,58.52 L18.4,34.51 Z" id="Shape" fill="#06BBD3" fill-rule="nonzero"></path>
            <path d="M39.72,34.57 L29.17,41 L18.37,34.59 L2.37,58.66 C2.58762533,58.7241972 2.81311358,58.7578521 3.04,58.76 L54.24,58.99 C54.7741733,58.9148977 55.3022168,58.8012681 55.82,58.65 L39.72,34.57 Z" id="Shape" fill="#06BBD3" fill-rule="nonzero"></path>
            <path d="M1.72,23.91 C1.72,23.91 12.26,59.72 49,59.39 L4.24,58.94 L1.93,58.27 L0.83,55.05 L1.29,24.05 L1.72,23.91 Z" id="Shape" fill="#231F20" fill-rule="nonzero" opacity="0.1" style="mix-blend-mode: multiply;"></path>
            <path d="M56.8,23.56 L56.8,56.66 C56.8055517,58.0202679 55.7102347,59.1289969 54.35,59.14 L3.66,59.14 C3.0049136,59.1373532 2.37770988,58.87458 1.91636923,58.4094886 C1.45502858,57.9443972 1.19734246,57.3150864 1.2,56.66 L1.2,23.56 L28.8,0.86 L56.8,23.56 Z" id="Shape" stroke="#424242" stroke-linecap="round" stroke-linejoin="round"></path>
            <polyline id="Shape" fill="#FFFFFF" fill-rule="nonzero" points="4.73 25.76 29.21 41.14 53.34 25.52 50.16 22.8 5.78 23.91 4.36 25.68"></polyline>
            <path d="M53.27,25.76 L53.27,12.41 C53.2755517,11.0497321 52.1802347,9.94100308 50.82,9.93 L7.19,9.93 C5.82976529,9.94100308 4.73444829,11.0497321 4.74,12.41 L4.74,25.76" id="Shape" stroke="#424242" fill="#FFFFFF" fill-rule="nonzero" stroke-linecap="round" stroke-linejoin="round"></path>
            <path d="M5.45,10.82 C5.45,10.82 12.37,38.1 41.26,33.44 L29.21,41.14 L4.73,25.76 L4.73,12.41 L5.45,10.82 Z" id="Shape" fill="#231F20" fill-rule="nonzero" opacity="0.1"></path>
            <polyline id="Shape" stroke="#424242" stroke-linecap="round" stroke-linejoin="round" points="56.8 23.56 29.21 41.14 1.21 23.56"></polyline>
            <path d="M39.88,34.63 L55.9,58.59" id="Shape" stroke="#424242" stroke-linecap="round" stroke-linejoin="round"></path>
            <path d="M2.22,58.79 L18.28,34.63" id="Shape" stroke="#424242" stroke-linecap="round" stroke-linejoin="round"></path>
            <path d="M30.589945,22.26359 C30.3509038,22.2187698 30.1043963,22.19636 29.850415,22.19636 C29.3872727,22.19636 28.954017,22.297204 28.550635,22.498895 C28.147253,22.700586 27.798034,22.9732383 27.5029675,23.31686 C27.207901,23.6604817 26.9744659,24.0545203 26.802655,24.4989875 C26.6308441,24.9434547 26.54494,25.4047226 26.54494,25.882805 C26.54494,26.3608874 26.6476515,26.7325162 26.8530775,26.9977025 C27.0585035,27.2628888 27.359168,27.39548 27.75508,27.39548 C27.949301,27.39548 28.1453865,27.3656003 28.3433425,27.30584 C28.5412985,27.2460797 28.7299141,27.1396333 28.909195,26.9864975 C29.0884759,26.8333617 29.2528143,26.6298063 29.402215,26.375825 C29.5516157,26.1218437 29.6748695,25.8043719 29.77198,25.4234 L30.589945,22.26359 Z M31.90093,25.13207 C31.7814094,25.6101524 31.7235175,26.000456 31.7272525,26.3029925 C31.7309875,26.605529 31.7776746,26.8445666 31.867315,27.0201125 C31.9569554,27.1956584 32.0839442,27.3170447 32.248285,27.384275 C32.4126258,27.4515053 32.599374,27.48512 32.808535,27.48512 C33.1222766,27.48512 33.4192061,27.3861435 33.6993325,27.1881875 C33.9794589,26.9902315 34.224099,26.7119768 34.43326,26.353415 C34.642421,25.9948532 34.8086269,25.5690675 34.9318825,25.076045 C35.0551381,24.5830225 35.116765,24.0451879 35.116765,23.462525 C35.116765,22.4914201 34.965499,21.6361137 34.6629625,20.89658 C34.360426,20.1570463 33.9365077,19.53891 33.391195,19.0421525 C32.8458823,18.545395 32.1978663,18.1718988 31.4471275,17.9216525 C30.6963887,17.6714062 29.8728295,17.546285 28.976425,17.546285 C27.9903801,17.546285 27.0790492,17.7311657 26.242405,18.1009325 C25.4057608,18.4706993 24.6793106,18.9767868 24.0630325,19.61921 C23.4467544,20.2616332 22.9649442,21.0198306 22.6175875,21.893825 C22.2702308,22.7678194 22.096555,23.70903 22.096555,24.717485 C22.096555,25.9425711 22.2870381,27.0201078 22.66801,27.9501275 C23.0489819,28.8801472 23.5718767,29.6570194 24.23671,30.2807675 C24.9015433,30.9045156 25.684018,31.3732534 26.5841575,31.686995 C27.484297,32.0007366 28.4572548,32.157605 29.50306,32.157605 C30.0782529,32.157605 30.6160875,32.1258578 31.11658,32.0623625 C31.6170725,31.9988672 32.0764729,31.912963 32.494795,31.8046475 C32.9131171,31.696332 33.2940833,31.5730782 33.637705,31.4348825 C33.9813267,31.2966868 34.2875937,31.1491558 34.556515,30.992285 C34.750736,30.8802344 34.9225443,30.8466198 35.071945,30.89144 C35.2213457,30.9362602 35.3296597,31.0483091 35.39689,31.22759 L35.77786,32.224835 C35.0009761,32.7327975 34.0933802,33.1473784 33.055045,33.46859 C32.0167098,33.7898016 30.8327266,33.950405 29.50306,33.950405 C28.1509832,33.950405 26.8997708,33.7375121 25.749385,33.31172 C24.5989992,32.8859279 23.6036317,32.2752615 22.7632525,31.4797025 C21.9228733,30.6841435 21.2655199,29.7149207 20.7911725,28.572005 C20.3168251,27.4290893 20.079655,26.1442621 20.079655,24.717485 C20.079655,23.918191 20.1823665,23.1413188 20.3877925,22.386845 C20.5932185,21.6323712 20.8864131,20.9245958 21.267385,20.2634975 C21.6483569,19.6023992 22.1077573,18.9954678 22.6456,18.442685 C23.1834427,17.8899022 23.7810367,17.415562 24.4384,17.01965 C25.0957633,16.623738 25.8072737,16.3156036 26.5729525,16.0952375 C27.3386313,15.8748714 28.1397808,15.76469 28.976425,15.76469 C30.0371703,15.76469 31.0549476,15.9421007 32.0297875,16.2969275 C33.0046274,16.6517543 33.8674037,17.1597092 34.6181425,17.8208075 C35.3688813,18.4819058 35.9683428,19.2886577 36.416545,20.2410875 C36.8647472,21.1935173 37.088845,22.267319 37.088845,23.462525 C37.088845,24.261819 36.9711937,25.010679 36.7358875,25.7091275 C36.5005813,26.407576 36.1719046,27.0145074 35.7498475,27.52994 C35.3277904,28.0453726 34.8310404,28.450616 34.2595825,28.7456825 C33.6881246,29.040749 33.0662534,29.18828 32.39395,29.18828 C31.8785174,29.18828 31.422852,29.0687612 31.02694,28.82972 C30.631028,28.5906788 30.3583757,28.2059777 30.208975,27.675605 C29.7682428,28.2134477 29.3013725,28.5981488 28.80835,28.82972 C28.3153275,29.0612912 27.7812279,29.177075 27.206035,29.177075 C26.7354226,29.177075 26.3264442,29.0949058 25.9790875,28.930565 C25.6317308,28.7662242 25.3404037,28.5402589 25.1050975,28.2526625 C24.8697913,27.9650661 24.6942481,27.6251845 24.5784625,27.2330075 C24.4626769,26.8408305 24.404785,26.4131773 24.404785,25.950035 C24.404785,25.5242429 24.458942,25.0928547 24.5672575,24.6558575 C24.675573,24.2188603 24.8380439,23.7968095 25.054675,23.3896925 C25.2713061,22.9825755 25.5420909,22.6016093 25.8670375,22.2467825 C26.1919841,21.8919557 26.5729503,21.5819538 27.0099475,21.3167675 C27.4469447,21.0515812 27.9399598,20.8424233 28.4890075,20.6892875 C29.0380552,20.5361517 29.6412517,20.459585 30.298615,20.459585 C30.8812779,20.459585 31.3780279,20.5044046 31.78888,20.594045 C32.1997321,20.6836854 32.5956381,20.8106742 32.97661,20.975015 L31.90093,25.13207 Z" id="@" fill="#424242"></path>
        </g>
    </g>
</svg>