<?xml version="1.0" encoding="UTF-8"?>
<svg width="178px" height="28px" viewBox="0 0 178 28" version="1.1" xmlns="http://www.w3.org/2000/svg" xmlns:xlink="http://www.w3.org/1999/xlink">
    <!-- Generator: Sketch 48.1 (47250) - http://www.bohemiancoding.com/sketch -->
    <title>img_url-bar</title>
    <desc>Created with Sketch.</desc>
    <defs>
        <rect id="path-1" x="0" y="0" width="178" height="28" rx="2"></rect>
    </defs>
    <g id="sign-in" stroke="none" stroke-width="1" fill="none" fill-rule="evenodd" transform="translate(-562.000000, -166.000000)">
        <g id="warning-copy-4" transform="translate(548.000000, 102.000000)">
            <g id="img_url-bar" transform="translate(14.000000, 64.000000)">
                <g id="Rectangle-2">
                    <use fill="#F6F6F6" fill-rule="evenodd" xlink:href="#path-1"></use>
                    <rect stroke="#BDBDBD" stroke-width="1" x="0.5" y="0.5" width="177" height="27" rx="2"></rect>
                </g>
                <path d="M17.875,12 L17.3125,12 L17.3125,10.8571429 C17.3125,9.28 16.0525,8 14.5,8 C12.9475,8 11.6875,9.28 11.6875,10.8571429 L11.6875,12 L11.125,12 C10.50625,12 10,12.5142857 10,13.1428571 L10,18.8571429 C10,19.4857143 10.50625,20 11.125,20 L17.875,20 C18.49375,20 19,19.4857143 19,18.8571429 L19,13.1428571 C19,12.5142857 18.49375,12 17.875,12 Z M16.24375,12 L12.75625,12 L12.75625,10.8571429 C12.75625,9.88 13.538125,9.08571429 14.5,9.08571429 C15.461875,9.08571429 16.24375,9.88 16.24375,10.8571429 L16.24375,12 Z" id="ic_secure" fill="#388E3C" fill-rule="nonzero"></path>
                <path d="M29.4882812,12.4101562 C29.7434909,12.1139308 30.0442691,11.8826506 30.390625,11.7163086 C30.7369809,11.5499666 31.1220682,11.4667969 31.5458984,11.4667969 C31.9059263,11.4667969 32.234048,11.5169266 32.5302734,11.6171875 C32.8264989,11.7174484 33.079426,11.8780913 33.2890625,12.0991211 C33.498699,12.3201508 33.6604812,12.6072573 33.7744141,12.9604492 C33.8883469,13.3136411 33.9453125,13.7408829 33.9453125,14.2421875 L33.9453125,19 L32.2841797,19 L32.2841797,14.2285156 C32.2841797,13.7180964 32.1736665,13.3569347 31.9526367,13.1450195 C31.731607,12.9331044 31.4069032,12.8271484 30.9785156,12.8271484 C30.6321597,12.8271484 30.3347994,12.9069002 30.0864258,13.0664062 C29.8380521,13.2259123 29.6386726,13.4423814 29.4882812,13.7158203 L29.4882812,19 L27.8271484,19 L27.8271484,8.5 L29.4882812,8.5 L29.4882812,12.4101562 Z M37.7050781,9.80566406 L37.7050781,11.6035156 L39.0107422,11.6035156 L39.0107422,12.8339844 L37.7050781,12.8339844 L37.7050781,16.9628906 C37.7050781,17.1315113 37.7233071,17.2682286 37.7597656,17.3730469 C37.7962241,17.4778651 37.8486325,17.5587562 37.9169922,17.6157227 C37.9853519,17.6726891 38.066243,17.7114257 38.159668,17.7319336 C38.2530929,17.7524415 38.3567703,17.7626953 38.4707031,17.7626953 C38.584636,17.7626953 38.6951492,17.7547201 38.8022461,17.7387695 C38.909343,17.7228189 38.9925127,17.7080079 39.0517578,17.6943359 L39.0517578,18.9794922 C38.9195957,19.0159507 38.7657886,19.0512694 38.590332,19.0854492 C38.4148754,19.1196291 38.2041028,19.1367188 37.9580078,19.1367188 C37.6845689,19.1367188 37.4305025,19.1002608 37.1958008,19.0273438 C36.9610991,18.9544267 36.7583016,18.8359383 36.5874023,18.671875 C36.4165031,18.5078117 36.2832036,18.2936211 36.1875,18.0292969 C36.0917964,17.7649726 36.0439453,17.4414082 36.0439453,17.0585938 L36.0439453,12.8339844 L34.8271484,12.8339844 L34.8271484,11.6035156 L36.0439453,11.6035156 L36.0439453,9.80566406 L37.7050781,9.80566406 Z M42.3603516,9.80566406 L42.3603516,11.6035156 L43.6660156,11.6035156 L43.6660156,12.8339844 L42.3603516,12.8339844 L42.3603516,16.9628906 C42.3603516,17.1315113 42.3785805,17.2682286 42.4150391,17.3730469 C42.4514976,17.4778651 42.5039059,17.5587562 42.5722656,17.6157227 C42.6406253,17.6726891 42.7215165,17.7114257 42.8149414,17.7319336 C42.9083664,17.7524415 43.0120437,17.7626953 43.1259766,17.7626953 C43.2399094,17.7626953 43.3504226,17.7547201 43.4575195,17.7387695 C43.5646164,17.7228189 43.6477862,17.7080079 43.7070312,17.6943359 L43.7070312,18.9794922 C43.5748691,19.0159507 43.4210621,19.0512694 43.2456055,19.0854492 C43.0701489,19.1196291 42.8593762,19.1367188 42.6132812,19.1367188 C42.3398424,19.1367188 42.0857759,19.1002608 41.8510742,19.0273438 C41.6163725,18.9544267 41.4135751,18.8359383 41.2426758,18.671875 C41.0717765,18.5078117 40.938477,18.2936211 40.8427734,18.0292969 C40.7470698,17.7649726 40.6992188,17.4414082 40.6992188,17.0585938 L40.6992188,12.8339844 L39.4824219,12.8339844 L39.4824219,11.6035156 L40.6992188,11.6035156 L40.6992188,9.80566406 L42.3603516,9.80566406 Z M51.4111328,15.3769531 C51.4111328,15.9147162 51.3484707,16.4137347 51.2231445,16.8740234 C51.0978184,17.3343122 50.9132499,17.7319319 50.6694336,18.0668945 C50.4256173,18.4018571 50.124839,18.6638988 49.7670898,18.8530273 C49.4093407,19.0421559 49.0003278,19.1367188 48.5400391,19.1367188 C48.1162088,19.1367188 47.7447933,19.0683601 47.4257812,18.9316406 C47.1067692,18.7949212 46.8287772,18.596681 46.5917969,18.3369141 L46.5917969,21.84375 L44.9306641,21.84375 L44.9306641,11.6035156 L46.4619141,11.6035156 L46.5302734,12.3554688 C46.7672538,12.0683579 47.0486637,11.8484708 47.3745117,11.6958008 C47.7003597,11.5431307 48.0820291,11.4667969 48.5195312,11.4667969 C48.9889346,11.4667969 49.403644,11.5579418 49.7636719,11.7402344 C50.1236997,11.922527 50.4256173,12.178872 50.6694336,12.5092773 C50.9132499,12.8396826 51.0978184,13.2361631 51.2231445,13.6987305 C51.3484707,14.1612979 51.4111328,14.6728488 51.4111328,15.2333984 L51.4111328,15.3769531 Z M49.7568359,15.2333984 C49.7568359,14.9007145 49.7237959,14.5885431 49.6577148,14.296875 C49.5916338,14.0052069 49.4902351,13.7500011 49.3535156,13.53125 C49.2167962,13.3124989 49.0413422,13.1404629 48.8271484,13.0151367 C48.6129547,12.8898106 48.3554703,12.8271484 48.0546875,12.8271484 C47.6901023,12.8271484 47.3893241,12.902343 47.1523438,13.0527344 C46.9153634,13.2031258 46.7285163,13.4082018 46.5917969,13.6679688 L46.5917969,16.9492188 C46.7285163,17.2089857 46.9142241,17.4174797 47.1489258,17.574707 C47.3836275,17.7319344 47.6901023,17.8105469 48.0683594,17.8105469 C48.3691421,17.8105469 48.6254872,17.7456061 48.8374023,17.6157227 C49.0493175,17.4858392 49.2236321,17.3103852 49.3603516,17.0893555 C49.497071,16.8683257 49.5973304,16.609702 49.6611328,16.3134766 C49.7249352,16.0172511 49.7568359,15.7050798 49.7568359,15.3769531 L49.7568359,15.2333984 Z M56.9619141,16.9902344 C56.9619141,16.8717442 56.9425458,16.761231 56.9038086,16.6586914 C56.8650714,16.5561518 56.7887375,16.4604497 56.6748047,16.371582 C56.5608718,16.2827144 56.4002289,16.1995447 56.1928711,16.1220703 C55.9855133,16.044596 55.7154965,15.97168 55.3828125,15.9033203 C54.9863261,15.8212887 54.6251644,15.7187506 54.2993164,15.5957031 C53.9734684,15.4726556 53.6943371,15.3234058 53.4619141,15.1479492 C53.229491,14.9724926 53.0483405,14.7662772 52.918457,14.5292969 C52.7885736,14.2923165 52.7236328,14.0188818 52.7236328,13.7089844 C52.7236328,13.4082016 52.7897129,13.1222344 52.921875,12.8510742 C53.0540371,12.579914 53.2443021,12.3417979 53.4926758,12.1367188 C53.7410494,11.9316396 54.0418277,11.7687181 54.3950195,11.6479492 C54.7482114,11.5271804 55.1435525,11.4667969 55.5810547,11.4667969 C56.0413434,11.4667969 56.4549135,11.5271804 56.8217773,11.6479492 C57.1886412,11.7687181 57.4996732,11.9350575 57.7548828,12.1469727 C58.0100924,12.3588878 58.2049147,12.608397 58.3393555,12.8955078 C58.4737962,13.1826186 58.5410156,13.4925114 58.5410156,13.8251953 L56.8798828,13.8251953 C56.8798828,13.6839186 56.8525393,13.5460619 56.7978516,13.4116211 C56.7431638,13.2771803 56.6611334,13.1575526 56.5517578,13.0527344 C56.4423823,12.9479161 56.3068042,12.8647464 56.1450195,12.8032227 C55.9832349,12.7416989 55.7952485,12.7109375 55.5810547,12.7109375 C55.3714182,12.7109375 55.1891284,12.7371417 55.0341797,12.7895508 C54.879231,12.8419599 54.7504888,12.9103186 54.6479492,12.9946289 C54.5454096,13.0789392 54.4690758,13.17692 54.4189453,13.2885742 C54.3688149,13.4002284 54.34375,13.5175775 54.34375,13.640625 C54.34375,13.7636725 54.3665362,13.8730464 54.4121094,13.96875 C54.4576825,14.0644536 54.5385736,14.1510413 54.6547852,14.2285156 C54.7709967,14.30599 54.9270824,14.3777666 55.1230469,14.4438477 C55.3190114,14.5099287 55.5651027,14.5748695 55.8613281,14.6386719 C56.2897157,14.7298182 56.6736637,14.8369134 57.0131836,14.9599609 C57.3527035,15.0830084 57.63981,15.2333975 57.8745117,15.4111328 C58.1092134,15.5888681 58.2880853,15.7985014 58.4111328,16.0400391 C58.5341803,16.2815767 58.5957031,16.5686832 58.5957031,16.9013672 C58.5957031,17.2294938 58.5250658,17.5302721 58.3837891,17.8037109 C58.2425123,18.0771498 58.0408542,18.3129873 57.7788086,18.5112305 C57.516763,18.7094736 57.2011737,18.8632807 56.8320312,18.9726562 C56.4628888,19.0820318 56.0527366,19.1367188 55.6015625,19.1367188 C55.0957006,19.1367188 54.6479512,19.0649421 54.2583008,18.9213867 C53.8686504,18.7778313 53.541668,18.5898449 53.2773438,18.3574219 C53.0130195,18.1249988 52.81364,17.8618179 52.6791992,17.5678711 C52.5447584,17.2739243 52.4775391,16.9742854 52.4775391,16.6689453 L54.0908203,16.6689453 C54.1044923,16.896811 54.1569006,17.0882154 54.2480469,17.2431641 C54.3391932,17.3981128 54.4554029,17.523437 54.5966797,17.6191406 C54.7379564,17.7148442 54.89746,17.7843422 55.0751953,17.8276367 C55.2529306,17.8709312 55.4352204,17.8925781 55.6220703,17.8925781 C56.0595725,17.8925781 56.3922515,17.8094084 56.6201172,17.6430664 C56.8479829,17.4767244 56.9619141,17.2591159 56.9619141,16.9902344 Z M60.0791016,18.1728516 C60.0791016,17.9085273 60.1634106,17.6886402 60.3320312,17.5131836 C60.5006519,17.337727 60.7376287,17.25 61.0429688,17.25 C61.3528661,17.25 61.5921216,17.337727 61.7607422,17.5131836 C61.9293628,17.6886402 62.0136719,17.9085273 62.0136719,18.1728516 C62.0136719,18.4326185 61.9293628,18.6479484 61.7607422,18.8188477 C61.5921216,18.9897469 61.3528661,19.0751953 61.0429688,19.0751953 C60.8925774,19.0751953 60.7569993,19.0524091 60.6362305,19.0068359 C60.5154616,18.9612628 60.4140629,18.8974613 60.3320312,18.8154297 C60.2499996,18.733398 60.1873375,18.6376959 60.144043,18.5283203 C60.1007485,18.4189448 60.0791016,18.3004564 60.0791016,18.1728516 Z M60.0791016,12.3691406 C60.0791016,12.1048164 60.1634106,11.8849293 60.3320312,11.7094727 C60.5006519,11.534016 60.7376287,11.4462891 61.0429688,11.4462891 C61.3528661,11.4462891 61.5921216,11.534016 61.7607422,11.7094727 C61.9293628,11.8849293 62.0136719,12.1048164 62.0136719,12.3691406 C62.0136719,12.6289075 61.9293628,12.8442374 61.7607422,13.0151367 C61.5921216,13.186036 61.3528661,13.2714844 61.0429688,13.2714844 C60.8925774,13.2714844 60.7569993,13.2486981 60.6362305,13.203125 C60.5154616,13.1575519 60.4140629,13.0937504 60.3320312,13.0117188 C60.2499996,12.9296871 60.1873375,12.8339849 60.144043,12.7246094 C60.1007485,12.6152338 60.0791016,12.4967454 60.0791016,12.3691406 Z M64.2216797,19.8544922 L62.9160156,19.8544922 L66.8330078,9.046875 L68.1386719,9.046875 L64.2216797,19.8544922 Z M69.7587891,19.8544922 L68.453125,19.8544922 L72.3701172,9.046875 L73.6757812,9.046875 L69.7587891,19.8544922 Z M81.3251953,16.7099609 L82.5009766,11.6035156 L84.1210938,11.6035156 L82.1044922,19 L80.7373047,19 L79.1513672,13.9208984 L77.5927734,19 L76.2255859,19 L74.2021484,11.6035156 L75.8222656,11.6035156 L77.0185547,16.6552734 L78.5361328,11.6035156 L79.7871094,11.6035156 L81.3251953,16.7099609 Z M91.7294922,16.7099609 L92.9052734,11.6035156 L94.5253906,11.6035156 L92.5087891,19 L91.1416016,19 L89.5556641,13.9208984 L87.9970703,19 L86.6298828,19 L84.6064453,11.6035156 L86.2265625,11.6035156 L87.4228516,16.6552734 L88.9404297,11.6035156 L90.1914062,11.6035156 L91.7294922,16.7099609 Z M102.133789,16.7099609 L103.30957,11.6035156 L104.929688,11.6035156 L102.913086,19 L101.545898,19 L99.9599609,13.9208984 L98.4013672,19 L97.0341797,19 L95.0107422,11.6035156 L96.6308594,11.6035156 L97.8271484,16.6552734 L99.3447266,11.6035156 L100.595703,11.6035156 L102.133789,16.7099609 Z M106.112305,18.1728516 C106.112305,17.9085273 106.196614,17.6886402 106.365234,17.5131836 C106.533855,17.337727 106.770832,17.25 107.076172,17.25 C107.386069,17.25 107.625325,17.337727 107.793945,17.5131836 C107.962566,17.6886402 108.046875,17.9085273 108.046875,18.1728516 C108.046875,18.4326185 107.962566,18.6479484 107.793945,18.8188477 C107.625325,18.9897469 107.386069,19.0751953 107.076172,19.0751953 C106.92578,19.0751953 106.790202,19.0524091 106.669434,19.0068359 C106.548665,18.9612628 106.447266,18.8974613 106.365234,18.8154297 C106.283203,18.733398 106.220541,18.6376959 106.177246,18.5283203 C106.133952,18.4189448 106.112305,18.3004564 106.112305,18.1728516 Z M111.717773,19 L110.056641,19 L110.056641,8.5 L111.717773,8.5 L111.717773,19 Z M118.006836,18.2753906 C117.774413,18.5488295 117.487306,18.7607414 117.145508,18.9111328 C116.803709,19.0615242 116.398114,19.1367188 115.928711,19.1367188 C115.564126,19.1367188 115.232586,19.0854497 114.934082,18.9829102 C114.635578,18.8803706 114.379233,18.7185883 114.165039,18.4975586 C113.950845,18.2765288 113.784506,17.991701 113.666016,17.6430664 C113.547525,17.2944319 113.488281,16.8763045 113.488281,16.3886719 L113.488281,11.6035156 L115.149414,11.6035156 L115.149414,16.4023438 C115.149414,16.6712253 115.181315,16.893391 115.245117,17.0688477 C115.30892,17.2443043 115.394368,17.3855789 115.501465,17.4926758 C115.608562,17.5997727 115.732747,17.6749672 115.874023,17.7182617 C116.0153,17.7615562 116.163411,17.7832031 116.318359,17.7832031 C116.746747,17.7832031 117.093098,17.7057299 117.357422,17.5507812 C117.621746,17.3958326 117.819986,17.1839206 117.952148,16.9150391 L117.952148,11.6035156 L119.613281,11.6035156 L119.613281,19 L118.047852,19 L118.006836,18.2753906 Z M122.84668,11.6035156 L122.894531,12.4580078 C123.154298,12.1435531 123.46647,11.8997404 123.831055,11.7265625 C124.19564,11.5533846 124.601235,11.4667969 125.047852,11.4667969 C125.403322,11.4667969 125.725747,11.5157873 126.015137,11.6137695 C126.304526,11.7117518 126.551757,11.8701161 126.756836,12.0888672 C126.961915,12.3076183 127.120279,12.5924462 127.231934,12.9433594 C127.343588,13.2942726 127.399414,13.7203751 127.399414,14.2216797 L127.399414,19 L125.738281,19 L125.738281,14.2080078 C125.738281,13.9527982 125.709798,13.7374683 125.652832,13.5620117 C125.595866,13.3865551 125.512696,13.2441412 125.40332,13.1347656 C125.293945,13.0253901 125.158367,12.9467776 124.996582,12.8989258 C124.834797,12.851074 124.64909,12.8271484 124.439453,12.8271484 C124.097655,12.8271484 123.800294,12.9091789 123.547363,13.0732422 C123.294432,13.2373055 123.092774,13.4583319 122.942383,13.7363281 L122.942383,19 L121.28125,19 L121.28125,11.6035156 L122.84668,11.6035156 Z M128.780273,15.2333984 C128.780273,14.6956353 128.858886,14.1977562 129.016113,13.7397461 C129.173341,13.281736 129.398924,12.8841163 129.692871,12.546875 C129.986818,12.2096337 130.345701,11.9453135 130.769531,11.7539062 C131.193361,11.562499 131.674151,11.4667969 132.211914,11.4667969 C132.754234,11.4667969 133.239581,11.562499 133.667969,11.7539062 C134.096356,11.9453135 134.457518,12.2096337 134.751465,12.546875 C135.045412,12.8841163 135.269856,13.281736 135.424805,13.7397461 C135.579753,14.1977562 135.657227,14.6956353 135.657227,15.2333984 L135.657227,15.3769531 C135.657227,15.9147162 135.579753,16.4137347 135.424805,16.8740234 C135.269856,17.3343122 135.045412,17.7319319 134.751465,18.0668945 C134.457518,18.4018571 134.097496,18.6638988 133.671387,18.8530273 C133.245278,19.0421559 132.763349,19.1367188 132.225586,19.1367188 C131.683266,19.1367188 131.199058,19.0421559 130.772949,18.8530273 C130.34684,18.6638988 129.986818,18.4018571 129.692871,18.0668945 C129.398924,17.7319319 129.173341,17.3343122 129.016113,16.8740234 C128.858886,16.4137347 128.780273,15.9147162 128.780273,15.3769531 L128.780273,15.2333984 Z M130.441406,15.3769531 C130.441406,15.7096371 130.475586,16.0240871 130.543945,16.3203125 C130.612305,16.6165379 130.7194,16.8751617 130.865234,17.0961914 C131.011068,17.3172212 131.196776,17.4915358 131.422363,17.6191406 C131.64795,17.7467454 131.915689,17.8105469 132.225586,17.8105469 C132.530926,17.8105469 132.796386,17.7467454 133.021973,17.6191406 C133.24756,17.4915358 133.432128,17.3172212 133.575684,17.0961914 C133.719239,16.8751617 133.826334,16.6165379 133.896973,16.3203125 C133.967611,16.0240871 134.00293,15.7096371 134.00293,15.3769531 L134.00293,15.2333984 C134.00293,14.9052718 133.967611,14.5942398 133.896973,14.300293 C133.826334,14.0063462 133.7181,13.7488618 133.572266,13.527832 C133.426432,13.3068023 133.240724,13.130209 133.015137,12.9980469 C132.78955,12.8658848 132.521811,12.7998047 132.211914,12.7998047 C131.902017,12.7998047 131.636557,12.8658848 131.415527,12.9980469 C131.194498,13.130209 131.011068,13.3068023 130.865234,13.527832 C130.7194,13.7488618 130.612305,14.0063462 130.543945,14.300293 C130.475586,14.5942398 130.441406,14.9052718 130.441406,15.2333984 L130.441406,15.3769531 Z M137.133789,18.1728516 C137.133789,17.9085273 137.218098,17.6886402 137.386719,17.5131836 C137.555339,17.337727 137.792316,17.25 138.097656,17.25 C138.407554,17.25 138.646809,17.337727 138.81543,17.5131836 C138.98405,17.6886402 139.068359,17.9085273 139.068359,18.1728516 C139.068359,18.4326185 138.98405,18.6479484 138.81543,18.8188477 C138.646809,18.9897469 138.407554,19.0751953 138.097656,19.0751953 C137.947265,19.0751953 137.811687,19.0524091 137.690918,19.0068359 C137.570149,18.9612628 137.46875,18.8974613 137.386719,18.8154297 C137.304687,18.733398 137.242025,18.6376959 137.19873,18.5283203 C137.155436,18.4189448 137.133789,18.3004564 137.133789,18.1728516 Z M144.010742,17.8105469 C144.211264,17.8105469 144.39925,17.7797855 144.574707,17.7182617 C144.750164,17.656738 144.902831,17.5701503 145.032715,17.4584961 C145.162598,17.3468419 145.267415,17.2135424 145.347168,17.0585938 C145.426921,16.9036451 145.471354,16.735027 145.480469,16.5527344 L147.045898,16.5527344 C147.032226,16.9082049 146.9445,17.2431625 146.782715,17.5576172 C146.62093,17.8720719 146.404461,18.146646 146.133301,18.3813477 C145.862141,18.6160494 145.546551,18.8006178 145.186523,18.9350586 C144.826496,19.0694994 144.441408,19.1367188 144.03125,19.1367188 C143.461586,19.1367188 142.965985,19.038738 142.544434,18.8427734 C142.122882,18.6468089 141.771974,18.38021 141.491699,18.0429688 C141.211424,17.7057275 141.00293,17.3115257 140.866211,16.8603516 C140.729492,16.4091774 140.661133,15.9306666 140.661133,15.4248047 L140.661133,15.1855469 C140.661133,14.679685 140.729492,14.2011741 140.866211,13.75 C141.00293,13.2988259 141.211424,12.9034848 141.491699,12.5639648 C141.771974,12.2244449 142.121743,11.9567067 142.541016,11.7607422 C142.960289,11.5647777 143.45475,11.4667969 144.024414,11.4667969 C144.471031,11.4667969 144.877765,11.5351556 145.244629,11.671875 C145.611493,11.8085944 145.925943,11.9999988 146.187988,12.2460938 C146.450034,12.4921887 146.65511,12.7861311 146.803223,13.1279297 C146.951335,13.4697283 147.032226,13.8457011 147.045898,14.2558594 L145.480469,14.2558594 C145.471354,14.0598949 145.431478,13.8730478 145.36084,13.6953125 C145.290201,13.5175772 145.192221,13.3626309 145.066895,13.2304688 C144.941568,13.0983066 144.79004,12.99349 144.612305,12.9160156 C144.434569,12.8385413 144.234051,12.7998047 144.010742,12.7998047 C143.673501,12.7998047 143.395509,12.8693027 143.176758,13.0083008 C142.958007,13.1472989 142.784831,13.3284494 142.657227,13.5517578 C142.529622,13.7750662 142.441895,14.030272 142.394043,14.3173828 C142.346191,14.6044936 142.322266,14.8938787 142.322266,15.1855469 L142.322266,15.4248047 C142.322266,15.7255874 142.346191,16.0183905 142.394043,16.3032227 C142.441895,16.5880548 142.529622,16.8421213 142.657227,17.0654297 C142.784831,17.2887381 142.956867,17.4687493 143.17334,17.6054688 C143.389812,17.7421882 143.668944,17.8105469 144.010742,17.8105469 Z M147.989258,15.2333984 C147.989258,14.6956353 148.06787,14.1977562 148.225098,13.7397461 C148.382325,13.281736 148.607909,12.8841163 148.901855,12.546875 C149.195802,12.2096337 149.554685,11.9453135 149.978516,11.7539062 C150.402346,11.562499 150.883135,11.4667969 151.420898,11.4667969 C151.963219,11.4667969 152.448566,11.562499 152.876953,11.7539062 C153.305341,11.9453135 153.666502,12.2096337 153.960449,12.546875 C154.254396,12.8841163 154.47884,13.281736 154.633789,13.7397461 C154.788738,14.1977562 154.866211,14.6956353 154.866211,15.2333984 L154.866211,15.3769531 C154.866211,15.9147162 154.788738,16.4137347 154.633789,16.8740234 C154.47884,17.3343122 154.254396,17.7319319 153.960449,18.0668945 C153.666502,18.4018571 153.30648,18.6638988 152.880371,18.8530273 C152.454262,19.0421559 151.972333,19.1367188 151.43457,19.1367188 C150.89225,19.1367188 150.408042,19.0421559 149.981934,18.8530273 C149.555825,18.6638988 149.195802,18.4018571 148.901855,18.0668945 C148.607909,17.7319319 148.382325,17.3343122 148.225098,16.8740234 C148.06787,16.4137347 147.989258,15.9147162 147.989258,15.3769531 L147.989258,15.2333984 Z M149.650391,15.3769531 C149.650391,15.7096371 149.68457,16.0240871 149.75293,16.3203125 C149.821289,16.6165379 149.928385,16.8751617 150.074219,17.0961914 C150.220053,17.3172212 150.405761,17.4915358 150.631348,17.6191406 C150.856935,17.7467454 151.124673,17.8105469 151.43457,17.8105469 C151.73991,17.8105469 152.00537,17.7467454 152.230957,17.6191406 C152.456544,17.4915358 152.641113,17.3172212 152.784668,17.0961914 C152.928223,16.8751617 153.035319,16.6165379 153.105957,16.3203125 C153.176595,16.0240871 153.211914,15.7096371 153.211914,15.3769531 L153.211914,15.2333984 C153.211914,14.9052718 153.176595,14.5942398 153.105957,14.300293 C153.035319,14.0063462 152.927084,13.7488618 152.78125,13.527832 C152.635416,13.3068023 152.449708,13.130209 152.224121,12.9980469 C151.998534,12.8658848 151.730796,12.7998047 151.420898,12.7998047 C151.111001,12.7998047 150.845541,12.8658848 150.624512,12.9980469 C150.403482,13.130209 150.220053,13.3068023 150.074219,13.527832 C149.928385,13.7488618 149.821289,14.0063462 149.75293,14.300293 C149.68457,14.5942398 149.650391,14.9052718 149.650391,15.2333984 L149.650391,15.3769531 Z M157.833008,11.6035156 L157.880859,12.3759766 C158.126954,12.0888658 158.426593,11.8655607 158.779785,11.7060547 C159.132977,11.5465487 159.544268,11.4667969 160.013672,11.4667969 C160.464846,11.4667969 160.868162,11.5568025 161.223633,11.7368164 C161.579103,11.9168303 161.852538,12.2050761 162.043945,12.6015625 C162.29004,12.2552066 162.601072,11.9794932 162.977051,11.7744141 C163.353029,11.5693349 163.7985,11.4667969 164.313477,11.4667969 C164.696291,11.4667969 165.038084,11.5180659 165.338867,11.6206055 C165.63965,11.723145 165.893716,11.8849273 166.101074,12.105957 C166.308432,12.3269868 166.467936,12.6106754 166.57959,12.9570312 C166.691244,13.3033871 166.74707,13.7203752 166.74707,14.2080078 L166.74707,19 L165.085938,19 L165.085938,14.2011719 C165.085938,13.927733 165.055176,13.7032886 164.993652,13.527832 C164.932129,13.3523754 164.843262,13.2122401 164.727051,13.1074219 C164.610839,13.0026036 164.471843,12.9296877 164.310059,12.8886719 C164.148274,12.847656 163.964845,12.8271484 163.759766,12.8271484 C163.381509,12.8271484 163.072755,12.9285472 162.833496,13.1313477 C162.594237,13.3341481 162.426758,13.5996077 162.331055,13.9277344 C162.331055,13.9505209 162.332194,13.9744465 162.334473,13.9995117 C162.336751,14.0245769 162.337891,14.0485025 162.337891,14.0712891 L162.337891,19 L160.676758,19 L160.676758,14.2216797 C160.676758,13.9619128 160.645996,13.743165 160.584473,13.5654297 C160.522949,13.3876944 160.434083,13.2441412 160.317871,13.1347656 C160.20166,13.0253901 160.061524,12.9467776 159.897461,12.8989258 C159.733398,12.851074 159.548829,12.8271484 159.34375,12.8271484 C158.988279,12.8271484 158.695476,12.9000644 158.465332,13.0458984 C158.235188,13.1917325 158.056316,13.3899727 157.928711,13.640625 L157.928711,19 L156.267578,19 L156.267578,11.6035156 L157.833008,11.6035156 Z" id="https://www.luno.com" fill="#449C4D"></path>
            </g>
        </g>
    </g>
</svg>