<svg xmlns="http://www.w3.org/2000/svg" width="32" height="32">
  <g fill="none" fill-rule="evenodd">
    <circle cx="16" cy="16" r="16" fill="#F7931A"/>
    <path fill="#FFF" fill-rule="nonzero" d="M23.19 14.02c.313-2.096-1.284-3.223-3.466-3.975l.708-2.84-1.728-.43-.69 2.765c-.454-.114-.92-.22-1.385-.326l.69-2.783L15.593 6l-.708 2.84c-.377-.087-.747-.172-1.105-.26l.003-.01-2.384-.595-.46 1.846s1.283.3 1.256.32c.7.175.825.638.804 1.006l-.804 3.235c.048.01.11.03.18.057-.058-.012-.12-.03-.183-.043l-1.13 4.53c-.086.21-.303.53-.793.41.02.026-1.253-.312-1.253-.312L8.16 21l2.25.56c.416.105.826.215 1.23.32l-.716 2.87 1.727.43.71-2.84c.47.127.93.245 1.38.357l-.707 2.83 1.73.43.715-2.867c2.948.557 5.164.332 6.097-2.334.753-2.146-.036-3.385-1.587-4.192 1.13-.26 1.98-1.002 2.207-2.537zm-3.95 5.538c-.534 2.147-4.15.986-5.32.695l.95-3.805c1.17.293 4.928.872 4.37 3.11zm.534-5.57c-.487 1.954-3.495.962-4.47.718l.86-3.45c.975.243 4.118.696 3.61 2.733z"/>
  </g>
</svg>
