<svg xmlns="http://www.w3.org/2000/svg" width="32" height="32" xmlns:sodipodi="http://sodipodi.sourceforge.net/DTD/sodipodi-0.dtd" xmlns:inkscape="http://www.inkscape.org/namespaces/inkscape" inkscape:version="0.91 r13725" sodipodi:docname="britcoin.svg"><sodipodi:namedview pagecolor="#ffffff" bordercolor="#666666" borderopacity="1" objecttolerance="10" gridtolerance="10" guidetolerance="10" inkscape:pageopacity="0" inkscape:pageshadow="2" inkscape:window-width="1918" inkscape:window-height="999" showgrid="false" inkscape:zoom="29.5" inkscape:cx="13.38" inkscape:cy="16.447" inkscape:window-x="0" inkscape:window-y="34" inkscape:window-maximized="1" inkscape:current-layer="layer1"/><circle cx="16" cy="16" r="16" fill="#005284" fill-rule="evenodd"/><g inkscape:groupmode="layer" inkscape:label="Layer 1"><circle cx="16" cy="16" r="13.375" fill="#fff"/><path fill="#005284" d="M4.377 11.393a12.512 12.512 0 0 0-.56 1.812h3.64l-3.08-1.812z"/><path fill="#da251c" d="M5.22 9.674a12.512 12.512 0 0 0-.527 1l4.31 2.53H11.2l-5.98-3.53z"/><path fill="#005284" d="M13.21 3.818a12.512 12.512 0 0 0-6.825 4.18l6.824 4.2v-8.38zm11.056 14.914l3.326 1.96a12.512 12.512 0 0 0 .61-1.96h-3.936z"/><path fill="#da251c" d="M20.525 18.732l6.204 3.676a12.512 12.512 0 0 0 .53-1.002l-4.55-2.674h-2.19z"/><path fill="#005284" d="M18.512 19.795v8.45a12.512 12.512 0 0 0 7.01-4.134l-7.01-4.31zm9.054-8.54l-3.3 1.942 3.914.002a12.512 12.512 0 0 0-.614-1.95z"/><path fill="#da251c" d="M26.04 8.56l-7.526 4.645h2.49l5.764-3.55a12.512 12.512 0 0 0-.727-1.096z"/><path fill="#005284" d="M18.514 3.744v8.4l6.96-4.292a12.512 12.512 0 0 0-6.96-4.108zM3.804 18.73a12.512 12.512 0 0 0 .546 1.83l3.107-1.83H3.805z"/><path fill="#da251c" d="M10.713 18.73L5.13 22.166a12.512 12.512 0 0 0 .71 1.107l7.363-4.543h-2.49z"/><path fill="#005284" d="M13.203 19.793l-6.818 4.195a12.512 12.512 0 0 0 6.818 4.196v-8.39z"/><path fill="#da251c" d="M16 3.488a12.512 12.512 0 0 0-1.77.14V28.37a12.512 12.512 0 0 0 1.77.142 12.512 12.512 0 0 0 1.457-.1V3.582A12.512 12.512 0 0 0 16 3.488z"/><path fill="#da251c" d="M3.637 14.182A12.512 12.512 0 0 0 3.487 16a12.512 12.512 0 0 0 .148 1.832H28.36A12.512 12.512 0 0 0 28.513 16a12.512 12.512 0 0 0-.145-1.818H3.638z"/><path fill="#f1cd4d" d="M15.573 8.513v.128l.32.54v.21l-.514-.33h-.1v.88h.09l.51-.29v.5c-.36.06-.63.36-.63.73 0 .41.33.74.73.74.4 0 .73-.32.73-.73 0-.35-.26-.65-.6-.72v-.48l.51.3h.09v-.84h-.1l-.51.34V9.2l.32-.54v-.13h-.89zm.32 1.81v.44c-.14-.025-.268-.085-.375-.17.078-.137.214-.238.375-.27zm.247.01c.16.042.294.155.362.304-.106.07-.23.114-.362.13v-.435zm-1.515.682c-.185 0-.334.15-.334.334 0 .18.15.33.34.33.19 0 .34-.15.34-.34 0-.19-.15-.34-.33-.34zm2.75 0c-.185 0-.335.15-.335.334 0 .18.15.33.334.33.184 0 .334-.15.334-.34 0-.19-.15-.34-.334-.34zm-1.51.08c.195 0 .373.064.516.174-.1.09-.23.15-.38.15-.19 0-.37-.11-.47-.26.11-.05.22-.07.34-.07zm-2.12.147c-.17 0-.308.137-.308.307 0 .16.138.3.307.3.17 0 .307-.14.307-.31 0-.17-.13-.31-.3-.31zm4.51 0c-.17 0-.308.137-.308.307 0 .16.138.3.307.3.17 0 .308-.14.308-.31 0-.17-.138-.31-.308-.31zm-5.312.38c-.15 0-.273.123-.273.274 0 .15.122.274.273.274.15 0 .274-.123.274-.274 0-.15-.123-.274-.274-.274zm6.112 0c-.15 0-.273.123-.273.274 0 .15.122.274.273.274.15 0 .274-.123.274-.274 0-.15-.13-.274-.28-.274zm-3.997.108l-.124.02c-1.047.156-2.03.568-2.81 1.003-.783.434-1.355.882-1.608 1.154l.238.22c.203-.218.77-.67 1.527-1.09.73-.403 1.63-.78 2.58-.944.14.31.27.598.41 1.302h.32c-.16-.813-.32-1.202-.47-1.55l-.05-.115zm1.883 0l-.04.114c-.15.35-.32.738-.48 1.55h.32c.14-.703.27-.99.41-1.3.95.162 1.86.54 2.58.942.76.42 1.33.873 1.53 1.092l.24-.22c-.25-.273-.82-.72-1.6-1.155-.78-.435-1.76-.847-2.81-1.004l-.12-.02zm-.94.022c-.15 0-.28.126-.28.28 0 .155.13.28.28.28.16 0 .28-.125.28-.28 0-.154-.12-.28-.28-.28zm-3.76.224c-.14 0-.25.114-.25.254s.12.253.26.253.26-.113.26-.253-.11-.254-.25-.254zm7.53 0c-.14 0-.25.114-.25.254s.12.253.26.253.26-.113.26-.253-.11-.254-.25-.254zm-8.24.453c-.13 0-.24.1-.24.24 0 .13.11.24.24.24s.24-.11.24-.24c0-.14-.11-.24-.24-.24zm8.97 0c-.13 0-.24.1-.24.24 0 .13.11.24.24.24.14 0 .24-.11.24-.24 0-.14-.1-.24-.24-.24zm-4.49.03c-.13 0-.24.1-.24.24s.11.24.24.24.24-.11.24-.24-.11-.24-.24-.24zm-5.12.44c-.12 0-.21.09-.21.21s.1.21.22.21.21-.1.21-.22-.1-.21-.22-.21zm10.25 0c-.12 0-.21.09-.21.21s.09.21.21.21.21-.1.21-.22-.09-.21-.21-.21zm-8.59.05c-.31.48-.29 1.09-.1 1.78-1.43-.61-1.92 1.23-.84 1.79-.08-.45 0-.93.48-.98.26-.03.57.04.6.52.03.33-.25 1.13-1.14 1.12-.55-.01-1.15-.22-1.41-1.11-.1-.33-.09-.32.23-.18.13.05.29.16.56.39-.02-.37-.2-1.32-.39-1.6-.25.17-.28.38-.75.52.17-.33.32-.66.56-1.02-.49.04-.79.15-1.12.22.08.32.15.63.27.88-.24.48-.04.69.22.92.107.09.57 1.47.337 1.93-.122.25-.05.51.12.63.195.13.368.3.524.47.2.222.15.245.4.11.863-.477 2.76-.805 4.95-.805 2.19 0 4.08.327 4.95.804.24.14.2.12.4-.11.15-.17.33-.34.52-.47.17-.11.24-.38.12-.62-.24-.47.23-1.84.33-1.935.25-.23.46-.443.21-.92.11-.25.19-.56.268-.88-.33-.07-.625-.19-1.12-.22.24.36.39.69.56 1.01-.47-.14-.5-.34-.75-.52-.184.28-.365 1.225-.384 1.6.27-.23.43-.34.56-.395.328-.14.33-.155.23.18-.262.89-.86 1.1-1.413 1.104-.89.01-1.175-.79-1.15-1.12.037-.474.34-.55.6-.52.485.05.565.524.48.97 1.088-.56.595-2.4-.84-1.79.19-.69.203-1.31-.106-1.787-.37.38-.81.7-.664 1.71-.27-.19-.5-.384-.746-.33-.326.077-.623.21-.68.72-.04.36.167.7.44.92.037-.35.1-.66.494-.664.45-.01.535.36.52.655-.02.406-.566.88-1.27.828-.7-.05-1.31-.65-1.3-1.372.224.055.504.287.63.4.03.02.115.02.14.02V14.3c-.033 0-.1-.01-.14.012-.2.12-.44.51-.58.474.11-.45.406-.98.414-1.166H15.3c.01.183.307.72.416 1.163-.14.032-.38-.355-.583-.477-.04-.025-.105-.015-.14-.016v1.51c.027 0 .114 0 .14-.02.13-.11.41-.34.636-.394.01.725-.6 1.324-1.3 1.376-.7.05-1.25-.42-1.27-.83-.02-.295.07-.667.52-.656.39.01.46.316.49.668.27-.223.48-.565.44-.92-.06-.515-.36-.65-.68-.723-.25-.05-.48.14-.75.34.14-1.02-.3-1.33-.67-1.71zm3.47.14c-.09 0-.17.07-.17.17 0 .09.08.17.18.17.09 0 .17-.08.17-.18 0-.1-.08-.17-.17-.17zm-5.64.31c-.1 0-.17.08-.17.17 0 .1.08.17.18.17.1 0 .18-.08.18-.18 0-.1-.08-.18-.17-.18zm11.29 0c-.1 0-.17.08-.17.17 0 .1.08.17.18.17.1 0 .18-.08.18-.18 0-.1-.08-.18-.17-.18zM16 14.92c.08 0 .145.07.145.15 0 .08-.066.15-.147.15-.082 0-.147-.066-.147-.147 0-.08.07-.147.15-.147zm-6.4.58c.06 0 .13.095.163.226.037.135.016.26-.045.28-.062.01-.14-.09-.178-.227-.036-.14-.015-.27.046-.28h.012zm12.8 0l.01.003c.06.015.083.14.047.28-.037.137-.116.237-.177.222-.06-.016-.08-.14-.044-.28.034-.13.105-.226.164-.225zM16 16.95l.343.55-.344.55-.35-.55.34-.55zm-1.43.19c.097 0 .175.077.175.173 0 .096-.078.174-.174.174-.09 0-.17-.078-.17-.174 0-.096.08-.173.18-.173zm2.86 0c.095 0 .172.077.172.173 0 .096-.077.174-.173.174-.1 0-.18-.078-.18-.174 0-.096.08-.173.17-.173zm-4.177.036c.355.007.644.195.678.46.04.304-.27.594-.69.647-.42.054-.79-.15-.83-.453-.04-.303.27-.592.7-.645.05-.007.11-.01.16-.01zm5.494 0c.05 0 .103.002.155.01.423.052.734.34.695.644-.038.304-.41.507-.833.453-.423-.053-.734-.343-.695-.647.03-.265.32-.453.67-.46zm-7.224.49c.095 0 .173.08.173.175 0 .1-.078.18-.173.18-.096 0-.174-.07-.174-.17 0-.09.07-.17.17-.17zm8.954 0c.096 0 .174.08.174.175 0 .1-.07.18-.17.18-.09 0-.17-.07-.17-.17 0-.09.08-.17.18-.17zm-5.813.195c.096 0 .174.08.174.18 0 .1-.078.18-.174.18-.095 0-.172-.08-.172-.17 0-.09.077-.17.172-.17zm2.672 0c.095 0 .172.08.172.18 0 .1-.077.18-.172.18-.096 0-.174-.08-.174-.17 0-.09.078-.17.174-.17zm-6.99.18l.37.3-.11.47-.37-.3.11-.46zm11.31 0l.108.47-.37.3-.11-.46.372-.3zm-10.006.33c.096 0 .173.08.173.18 0 .1-.077.18-.173.18-.096 0-.174-.07-.174-.17 0-.09.078-.17.174-.17zm8.7 0c.096 0 .174.08.174.18 0 .1-.078.18-.174.18-.096 0-.173-.07-.173-.17 0-.09.077-.17.173-.17zm-4.35.42c-2.705 0-4.897.56-4.897.87 0 .29 2.192.78 4.897.78s4.897-.49 4.897-.78c0-.31-2.192-.87-4.897-.87z" inkscape:connector-curvature="0" inkscape:label="Layer 1"/></g></svg>