<?xml version="1.0" encoding="UTF-8" standalone="no"?>
<svg
   xmlns:dc="http://purl.org/dc/elements/1.1/"
   xmlns:cc="http://creativecommons.org/ns#"
   xmlns:rdf="http://www.w3.org/1999/02/22-rdf-syntax-ns#"
   xmlns:svg="http://www.w3.org/2000/svg"
   xmlns="http://www.w3.org/2000/svg"
   xmlns:sodipodi="http://sodipodi.sourceforge.net/DTD/sodipodi-0.dtd"
   xmlns:inkscape="http://www.inkscape.org/namespaces/inkscape"
   width="32"
   height="32"
   id="svg2"
   version="1.1"
   inkscape:version="0.91 r13725"
   sodipodi:docname="crown.svg">
  <metadata
     id="metadata18">
    <rdf:RDF>
      <cc:Work
         rdf:about="">
        <dc:format>image/svg+xml</dc:format>
        <dc:type
           rdf:resource="http://purl.org/dc/dcmitype/StillImage" />
        <dc:title></dc:title>
      </cc:Work>
    </rdf:RDF>
  </metadata>
  <defs
     id="defs16" />
  <sodipodi:namedview
     pagecolor="#ffffff"
     bordercolor="#666666"
     borderopacity="1"
     objecttolerance="10"
     gridtolerance="10"
     guidetolerance="10"
     inkscape:pageopacity="0"
     inkscape:pageshadow="2"
     inkscape:window-width="1920"
     inkscape:window-height="1031"
     id="namedview14"
     showgrid="false"
     inkscape:zoom="20.85965"
     inkscape:cx="15.500233"
     inkscape:cy="15.642405"
     inkscape:window-x="0"
     inkscape:window-y="25"
     inkscape:window-maximized="1"
     inkscape:current-layer="svg2" />
  <circle
     style="fill:#101429;fill-rule:evenodd;fill-opacity:1"
     id="circle6"
     r="16"
     cy="16"
     cx="16" />
  <g
     transform="matrix(0.07298893,0,0,0.07298893,-4.0464089,-4.4441986)"
     id="g4160">
    <g
       id="XMLID_5_">
      <path
         style="fill:#ffffff;fill-opacity:1"
         inkscape:connector-curvature="0"
         d="m 193.3,371.3 -81.1,-129.6 19.7,10.4 c 25.6,13.5 50.1,16.4 72.7,8.6 44.5,-15.4 70,-72.1 70.2,-72.6 l 6.8,14.3 c -7.1,13.9 -31.3,55.2 -73,69.6 -20.4,7.1 -41.9,6.6 -64.1,-1.2 l 60.6,96.7 -11.8,3.8 z"
         class="st0"
         id="XMLID_7_" />
    </g>
    <g
       id="XMLID_1_">
      <path
         style="fill:#ffffff;fill-opacity:1"
         inkscape:connector-curvature="0"
         d="m 230.5,345.5 c 61.7,-12.9 106.5,3.7 121,10.6 l 53.6,-85.3 c -33.7,11.6 -59.9,5 -76.8,-3.5 -16.1,-8.1 -26.5,-19 -30.9,-24.3 l 5.9,-12 c 0.1,0.1 11.9,16.4 30.9,25.8 25.2,12.4 53.3,10.9 83.5,-4.4 l 19.4,-9.8 -81.5,129.5 -5,-3 c -0.4,-0.3 -44.9,-25.7 -112.9,-12.6 l -7.2,-11 z"
         class="st0"
         id="XMLID_8_" />
    </g>
  </g>
</svg>
