<svg xmlns="http://www.w3.org/2000/svg" width="32" height="32"><g fill="none" fill-rule="evenodd"><circle cx="16" cy="16" r="16" fill="#C3A634"/><path fill="#FFF" d="M13.25 14.6h4.3v2.3h-4.3v4.8h2.72c1.08 0 1.96-.13 2.64-.42.7-.3 1.28-.7 1.67-1.2.4-.53.65-1.13.8-1.83.13-.7.2-1.44.2-2.25 0-.8-.07-1.56-.2-2.25-.15-.7-.4-1.3-.8-1.82-.4-.5-.93-.92-1.62-1.2-.67-.3-1.55-.44-2.63-.44H13.3v4.3zm-2.77 2.3H9v-2.3h1.48V8h6.55c1.2 0 2.26.2 3.14.63.9.42 1.6 1 2.17 1.7.56.74.98 1.58 1.25 2.56.22.92.4 2 .4 3.1s-.18 2.1-.4 3.1c-.3 1-.7 1.8-1.3 2.52-.56.72-1.28 1.3-2.17 1.7-.88.43-1.93.64-3.14.64h-6.55v-7.1z"/></g></svg>