<svg xmlns="http://www.w3.org/2000/svg" width="32" height="32" xmlns:sodipodi="http://sodipodi.sourceforge.net/DTD/sodipodi-0.dtd" xmlns:inkscape="http://www.inkscape.org/namespaces/inkscape" inkscape:version="0.91 r13725" sodipodi:docname="monero.svg"><sodipodi:namedview pagecolor="#ffffff" bordercolor="#666666" borderopacity="1" objecttolerance="10" gridtolerance="10" guidetolerance="10" inkscape:pageopacity="0" inkscape:pageshadow="2" inkscape:window-width="1918" inkscape:window-height="999" showgrid="false" inkscape:zoom="20.86" inkscape:cx="16.56" inkscape:cy="14.46" inkscape:window-x="0" inkscape:window-y="34" inkscape:window-maximized="1" inkscape:current-layer="layer1"/><circle cx="16" cy="16" r="16" fill="#f60" fill-rule="evenodd"/><path fill="#fff" d="M15.97 2.7c7.4 0 13.37 5.97 13.37 13.36 0 1.5-.25 2.9-.7 4.24h-3.97V9.07l-8.7 8.7-8.7-8.7V20.3H3.3c-.44-1.34-.7-2.75-.7-4.24C2.6 8.66 8.58 2.7 15.97 2.7zm-2 17.02l2.04 2 2-2 3.78-3.8v7.06h5.6c-2.3 3.84-6.58 6.4-11.4 6.4S6.9 26.83 4.58 23h5.6v-7.06l3.8 3.8z" inkscape:connector-curvature="0" inkscape:groupmode="layer" inkscape:label="Layer 1"/></svg>