<?xml version="1.0" encoding="UTF-8" standalone="no"?>
<svg
   xmlns:dc="http://purl.org/dc/elements/1.1/"
   xmlns:cc="http://creativecommons.org/ns#"
   xmlns:rdf="http://www.w3.org/1999/02/22-rdf-syntax-ns#"
   xmlns:svg="http://www.w3.org/2000/svg"
   xmlns="http://www.w3.org/2000/svg"
   xmlns:sodipodi="http://sodipodi.sourceforge.net/DTD/sodipodi-0.dtd"
   xmlns:inkscape="http://www.inkscape.org/namespaces/inkscape"
   width="32"
   height="32"
   id="svg2"
   version="1.1"
   inkscape:version="0.91 r13725"
   sodipodi:docname="nem.svg">
  <metadata
     id="metadata18">
    <rdf:RDF>
      <cc:Work
         rdf:about="">
        <dc:format>image/svg+xml</dc:format>
        <dc:type
           rdf:resource="http://purl.org/dc/dcmitype/StillImage" />
        <dc:title></dc:title>
      </cc:Work>
    </rdf:RDF>
  </metadata>
  <defs
     id="defs16" />
  <sodipodi:namedview
     pagecolor="#ffffff"
     bordercolor="#666666"
     borderopacity="1"
     objecttolerance="10"
     gridtolerance="10"
     guidetolerance="10"
     inkscape:pageopacity="0"
     inkscape:pageshadow="2"
     inkscape:window-width="1920"
     inkscape:window-height="1031"
     id="namedview14"
     showgrid="false"
     inkscape:zoom="10.429825"
     inkscape:cx="11.89771"
     inkscape:cy="14.134224"
     inkscape:window-x="0"
     inkscape:window-y="25"
     inkscape:window-maximized="1"
     inkscape:current-layer="g4" />
  <g
     fill="none"
     fill-rule="evenodd"
     id="g4">
    <circle
       cx="16"
       cy="16"
       r="16"
       id="circle6"
       fill="#db0404"
       style="fill:#00c4b3;fill-opacity:1" />
    <g
       id="g4302"
       transform="matrix(0.85940772,0,0,0.85940772,-14.817245,1.1721436)">
      <path
         style="fill:#ffffff;fill-opacity:1"
         inkscape:connector-curvature="0"
         class="st0"
         d="m 25.985641,11.553998 c 1.328167,-0.767847 2.718593,-1.369674 4.181653,-1.8054788 1.992252,-0.5914498 4.015633,-0.8716102 6.090895,-0.830105 0.964997,0.020753 2.573326,0.1763973 2.84311,0.2801605 0.01038,0.020753 -0.01038,0.031129 -0.03113,0.031129 -0.09339,0.041505 -0.19715,0.072634 -0.290537,0.1141394 -1.71209,0.7159659 -2.926119,2.2205309 -3.278913,4.0467619 -0.05188,0.300913 -0.08301,0.601826 -0.09339,0.902739 -0.01038,0.456558 -0.05188,0.913116 -0.186774,1.359297 -0.456557,1.608329 -1.774349,2.863863 -3.40343,3.23741 -2.13752,0.487687 -4.295793,-0.570697 -5.229661,-2.552573 -0.05188,-0.114139 -0.09339,-0.228279 -0.11414,-0.342418 -0.155644,-0.674461 -0.269784,-1.348921 -0.352794,-2.033758 -0.09339,-0.757471 -0.145269,-1.514941 -0.145269,-2.272412 0.01038,-0.05188 0.01038,-0.08301 0.01038,-0.134892 z"
         id="path4224" />
      <path
         style="fill:#ffffff;fill-opacity:1"
         inkscape:connector-curvature="0"
         class="st1"
         d="m 41.290701,23.984821 c 0.02075,-0.19715 0.04151,-0.373547 0.05188,-0.560321 0.05188,-1.027255 -0.16602,-2.002628 -0.653707,-2.905368 -0.466934,-0.861234 -1.120641,-1.54607 -1.961123,-2.064886 -0.07263,-0.05188 -0.155644,-0.09339 -0.228278,-0.145269 -1.151771,-0.726341 -1.85736,-1.753596 -2.106392,-3.092141 -0.446181,-2.407304 1.06876,-4.731599 3.444936,-5.3022957 0.840481,-0.19715 1.66021,-0.1763974 2.479938,0.083011 0.674461,0.2075257 1.317792,0.4876867 1.961123,0.7885997 0.446182,0.207526 0.871611,0.435805 1.297039,0.67446 0.05188,0.03113 0.09339,0.05188 0.155645,0.09339 0,0.04151 0.01038,0.07263 0.01038,0.11414 0,0.549944 -0.03113,1.110265 -0.07263,1.66021 -0.07263,0.809352 -0.19715,1.618705 -0.363171,2.407305 -0.508439,2.345046 -1.411178,4.513696 -2.718593,6.526701 -0.363171,0.560321 -0.757471,1.099889 -1.172524,1.618705 -0.0415,0.03113 -0.06226,0.07263 -0.124515,0.103763 z"
         id="path4226" />
      <path
         style="fill:#ffffff;fill-opacity:1"
         inkscape:connector-curvature="0"
         class="st2"
         d="m 35.86389,28.623033 c -0.155645,-0.06226 -0.632955,-0.352795 -1.141395,-0.695213 -1.131018,-0.757471 -2.179025,-1.629081 -3.133646,-2.604455 -0.954621,-0.975373 -1.805478,-2.044133 -2.53182,-3.195904 -0.684837,-1.06876 -1.255534,-2.189402 -1.712092,-3.372302 -0.01038,-0.03113 -0.02075,-0.05188 -0.03113,-0.103763 0.05188,0.03113 0.07263,0.04151 0.103764,0.06226 0.363171,0.28016 0.747094,0.518816 1.162147,0.695213 0.529191,0.228279 1.079136,0.383923 1.660209,0.435805 1.172524,0.114139 2.272413,-0.124516 3.310044,-0.705589 0.539568,-0.300914 1.120642,-0.498064 1.732844,-0.581074 2.168649,-0.269784 4.326922,1.016879 5.001382,3.258162 0.342419,1.151771 0.238655,2.272413 -0.290536,3.361926 -0.07264,0.145268 -0.134893,0.28016 -0.207527,0.415052 -0.04151,0.08301 -0.09339,0.166021 -0.166021,0.228279 -1.099889,1.037632 -2.303541,1.950747 -3.610956,2.718594 -0.05188,0.03113 -0.103763,0.06226 -0.145268,0.08301 z"
         id="path4228" />
    </g>
  </g>
</svg>
