<svg xmlns="http://www.w3.org/2000/svg" width="32" height="32"><g fill="none" fill-rule="evenodd"><circle cx="16" cy="16" r="16" fill="#0081c2"/><path fill="#FFF" fill-rule="nonzero" d="M21.96 18.205c-.69-.408-1.467-.526-2.237-.554-.646-.02-1.61-.444-1.61-1.65 0-.895.71-1.62 1.61-1.65.77-.026 1.548-.145 2.238-.553 1.716-1.014 2.47-3.14 1.796-5.046-.677-1.905-2.59-3.037-4.54-2.685-1.95.352-3.37 2.086-3.37 4.114 0 .81.282 1.553.64 2.243.302.58.454 1.66-.58 2.27-.77.456-1.73.168-2.21-.618-.404-.664-.893-1.286-1.578-1.69-1.713-1.015-3.89-.622-5.162.93-1.272 1.554-1.272 3.818 0 5.37 1.272 1.554 3.45 1.947 5.162.933.685-.404 1.174-1.026 1.58-1.69.33-.545 1.16-1.24 2.208-.62.768.455 1.006 1.45.58 2.27-.36.692-.64 1.436-.64 2.246 0 2.027 1.42 3.76 3.37 4.113 1.95.352 3.863-.78 4.54-2.685.676-1.903-.08-4.03-1.793-5.044z"/></g></svg>