<?xml version="1.0" encoding="UTF-8" standalone="no"?>
<svg
   xmlns:dc="http://purl.org/dc/elements/1.1/"
   xmlns:cc="http://creativecommons.org/ns#"
   xmlns:rdf="http://www.w3.org/1999/02/22-rdf-syntax-ns#"
   xmlns:svg="http://www.w3.org/2000/svg"
   xmlns="http://www.w3.org/2000/svg"
   xmlns:sodipodi="http://sodipodi.sourceforge.net/DTD/sodipodi-0.dtd"
   xmlns:inkscape="http://www.inkscape.org/namespaces/inkscape"
   width="32"
   height="32"
   id="svg2"
   version="1.1"
   inkscape:version="0.91 r13725"
   sodipodi:docname="waves.svg">
  <metadata
     id="metadata18">
    <rdf:RDF>
      <cc:Work
         rdf:about="">
        <dc:format>image/svg+xml</dc:format>
        <dc:type
           rdf:resource="http://purl.org/dc/dcmitype/StillImage" />
        <dc:title></dc:title>
      </cc:Work>
    </rdf:RDF>
  </metadata>
  <defs
     id="defs16">
    <linearGradient
       gradientUnits="userSpaceOnUse"
       y2="662.26"
       x2="1419.34"
       y1="1712.04"
       x1="191.59"
       id="a"
       gradientTransform="matrix(0.01537349,0,0,0.01537349,26.47761,13.22281)">
      <stop
         id="stop4383"
         stop-color="#beea2e" />
      <stop
         id="stop4385"
         stop-color="#52ba00"
         offset="1" />
    </linearGradient>
    <linearGradient
       gradientUnits="userSpaceOnUse"
       y2="662.26"
       x2="1419.34"
       y1="1712.04"
       x1="191.59"
       id="a-3"
       gradientTransform="matrix(1.2499999,0,0,1.25,-1190.555,-1198.9201)">
      <stop
         id="stop4454"
         stop-color="#beea2e" />
      <stop
         id="stop4456"
         stop-color="#52ba00"
         offset="1" />
    </linearGradient>
  </defs>
  <sodipodi:namedview
     pagecolor="#ffffff"
     bordercolor="#666666"
     borderopacity="1"
     objecttolerance="10"
     gridtolerance="10"
     guidetolerance="10"
     inkscape:pageopacity="0"
     inkscape:pageshadow="2"
     inkscape:window-width="1920"
     inkscape:window-height="1031"
     id="namedview14"
     showgrid="false"
     inkscape:zoom="5.2149125"
     inkscape:cx="-43.13569"
     inkscape:cy="12.330923"
     inkscape:window-x="0"
     inkscape:window-y="25"
     inkscape:window-maximized="1"
     inkscape:current-layer="g4" />
  <g
     fill="none"
     fill-rule="evenodd"
     id="g4">
    <circle
       cx="16"
       cy="16"
       r="16"
       id="circle6"
       fill="#db0404"
       style="fill:#3db6d3;fill-opacity:1" />
    <g
       id="g4687"
       transform="matrix(0.02954815,0,0,0.02954815,6.9756409,6.9996341)"
       style="fill:#ffffff;fill-opacity:1">
      <path
         id="path4676"
         d="M 504.5,171.1 353.1,19.6 c -26.2,-26.2 -69,-26.2 -95.1,0 L 106.7,170.8 c -8.7,8.7 -8.7,23 0,31.7 l 45.9,45.9 30.5,28.2 c 9.1,8.4 22.9,8.4 32,0 l 61.1,-56.5 c 16.8,-15.5 42.6,-15.5 59.3,0 l 61.1,56.5 c 9,8.4 22.9,8.4 31.9,0 l 30.5,-28.2 45.5,-45.5 c 8.8,-8.8 8.8,-23 0,-31.8"
         class="st0"
         inkscape:connector-curvature="0"
         style="clip-rule:evenodd;fill:#ffffff;fill-opacity:1;fill-rule:evenodd" />
      <path
         id="path4678"
         d="m 20.5,352.2 237.4,237.4 c 26.2,26.2 69,26.2 95.1,0 L 590.4,352.2 c 41.2,-41.2 12.2,-53.3 -18,-81.9 L 535.2,235 c -9,-8.5 -22.9,-8.4 -32,0 l -61.1,56.5 c -16.8,15.5 -42.6,15.5 -59.3,0 L 321.7,235 c -9,-8.4 -22.9,-8.4 -31.9,0 l -61.1,56.5 c -16.8,15.5 -42.6,15.5 -59.3,0 L 108.3,235 c -9.1,-8.4 -22.9,-8.4 -32,0 l -34.2,31.6 c -31.4,29.2 -64.6,42.6 -21.6,85.6"
         class="st1"
         inkscape:connector-curvature="0"
         style="clip-rule:evenodd;fill:#ffffff;fill-opacity:1;fill-rule:evenodd" />
    </g>
  </g>
  <style
     id="style4550">.st0{fill:url(#SVGID_1_)}.st1{fill:url(#SVGID_2_)}</style>
  <style
     id="style4674">.st0,.st1{fill-rule:evenodd;clip-rule:evenodd;fill:#3db6d3}.st1{fill:#e2e1e1}</style>
</svg>
